<?xml version="1.0" encoding="UTF-8" standalone="no"?>
<!DOCTYPE svg PUBLIC "-//W3C//DTD SVG 1.1//EN" "http://www.w3.org/Graphics/SVG/1.1/DTD/svg11.dtd">
<svg version="1.1" xmlns="http://www.w3.org/2000/svg" xmlns:xlink="http://www.w3.org/1999/xlink" preserveAspectRatio="xMidYMid meet" viewBox="0 0 24 24" width="24" height="24"><defs><path d="M0 24L24 24L24 0L0 24Z" id="ajq1NWviL"></path><path d="M22.37 7.6C22.37 8.16 22.37 9.29 22.37 9.84C22.37 10.14 22.13 10.38 21.83 10.38C21.27 10.38 20.1 10.38 19.53 10.38C19.24 10.38 19 10.14 19 9.84C19 9.29 19 8.16 19 7.6C19 7.31 19.24 7.07 19.53 7.07C20.1 7.07 21.27 7.07 21.83 7.07C22.13 7.07 22.37 7.31 22.37 7.6Z" id="hBJcPlymH"></path><path d="M22.37 13.53C22.37 14.09 22.37 15.22 22.37 15.77C22.37 16.07 22.13 16.31 21.83 16.31C21.27 16.31 20.1 16.31 19.53 16.31C19.24 16.31 19 16.07 19 15.77C19 15.22 19 14.09 19 13.53C19 13.24 19.24 13 19.53 13C20.1 13 21.27 13 21.83 13C22.13 13 22.37 13.24 22.37 13.53Z" id="d1hi5AeOKZ"></path><path d="M19 19.54C19 20.09 19 21.22 19 21.77C19 22.07 19.24 22.31 19.54 22.31C20.1 22.31 21.27 22.31 21.84 22.31C22.13 22.31 22.37 22.07 22.37 21.77C22.37 21.22 22.37 20.09 22.37 19.54C22.37 19.24 22.13 19 21.84 19C21.27 19 20.1 19 19.54 19C19.24 19 19 19.24 19 19.54Z" id="a2QoDybztY"></path><path d="M16.37 13.53C16.37 14.09 16.37 15.22 16.37 15.77C16.37 16.07 16.13 16.31 15.83 16.31C15.27 16.31 14.1 16.31 13.53 16.31C13.24 16.31 13 16.07 13 15.77C13 15.22 13 14.09 13 13.53C13 13.24 13.24 13 13.53 13C14.1 13 15.27 13 15.83 13C16.13 13 16.37 13.24 16.37 13.53Z" id="b3ydv68Toy"></path><path d="M16.37 19.53C16.37 20.09 16.37 21.22 16.37 21.77C16.37 22.07 16.13 22.31 15.83 22.31C15.27 22.31 14.1 22.31 13.53 22.31C13.24 22.31 13 22.07 13 21.77C13 21.22 13 20.09 13 19.53C13 19.24 13.24 19 13.53 19C14.1 19 15.27 19 15.83 19C16.13 19 16.37 19.24 16.37 19.53Z" id="c51093YNSE"></path><path d="M10.37 19.53C10.37 20.09 10.37 21.22 10.37 21.77C10.37 22.07 10.13 22.31 9.83 22.31C9.27 22.31 8.1 22.31 7.53 22.31C7.24 22.31 7 22.07 7 21.77C7 21.22 7 20.09 7 19.53C7 19.24 7.24 19 7.53 19C8.1 19 9.27 19 9.83 19C10.13 19 10.37 19.24 10.37 19.53Z" id="b7q2bQrvi"></path></defs><g><g><g><use xlink:href="#ajq1NWviL" opacity="1" fill="#222222" fill-opacity="1"></use><g><use xlink:href="#ajq1NWviL" opacity="1" fill-opacity="0" stroke="#000000" stroke-width="1" stroke-opacity="0"></use></g></g><g><use xlink:href="#hBJcPlymH" opacity="1" fill="#888888" fill-opacity="1"></use><g><use xlink:href="#hBJcPlymH" opacity="1" fill-opacity="0" stroke="#000000" stroke-width="1" stroke-opacity="0"></use></g></g><g><use xlink:href="#d1hi5AeOKZ" opacity="1" fill="#6d6d6d" fill-opacity="1"></use><g><use xlink:href="#d1hi5AeOKZ" opacity="1" fill-opacity="0" stroke="#000000" stroke-width="1" stroke-opacity="0"></use></g></g><g><use xlink:href="#a2QoDybztY" opacity="1" fill="#555555" fill-opacity="1"></use><g><use xlink:href="#a2QoDybztY" opacity="1" fill-opacity="0" stroke="#000000" stroke-width="1" stroke-opacity="0"></use></g></g><g><use xlink:href="#b3ydv68Toy" opacity="1" fill="#888888" fill-opacity="1"></use><g><use xlink:href="#b3ydv68Toy" opacity="1" fill-opacity="0" stroke="#000000" stroke-width="1" stroke-opacity="0"></use></g></g><g><use xlink:href="#c51093YNSE" opacity="1" fill="#6d6d6d" fill-opacity="1"></use><g><use xlink:href="#c51093YNSE" opacity="1" fill-opacity="0" stroke="#000000" stroke-width="1" stroke-opacity="0"></use></g></g><g><use xlink:href="#b7q2bQrvi" opacity="1" fill="#888888" fill-opacity="1"></use><g><use xlink:href="#b7q2bQrvi" opacity="1" fill-opacity="0" stroke="#000000" stroke-width="1" stroke-opacity="0"></use></g></g></g></g></svg>